<svg width="37" height="37" viewBox="0 0 37 37" fill="none" xmlns="http://www.w3.org/2000/svg">
<path d="M14.7546 7.59449C16.441 9.28295 17.2863 10.1262 18.3337 10.1262C19.3831 10.1262 20.2263 9.28295 21.9127 7.59449L25.4938 4.01545C26.3247 3.18245 26.7412 2.76595 27.1741 2.51687C29.3505 1.2592 31.1451 2.50666 32.6519 4.01545C34.1607 5.5222 35.4081 7.31683 34.1505 9.49324C33.9014 9.92608 33.4849 10.3426 32.6519 11.1735L29.0728 14.7546C27.3844 16.441 26.5412 17.2863 26.5412 18.3337C26.5412 19.3831 27.3844 20.2263 29.0728 21.9127L32.6519 25.4938C33.4849 26.3247 33.9014 26.7412 34.1505 27.1741C35.4081 29.3505 34.1607 31.1451 32.6519 32.6519C31.1451 34.1607 29.3505 35.4081 27.1741 34.1505C26.7412 33.9014 26.3247 33.4849 25.4938 32.6519L21.9127 29.0728C20.2263 27.3864 19.381 26.5412 18.3337 26.5412C17.2842 26.5412 16.441 27.3864 14.7546 29.0728L11.1735 32.6519C10.3426 33.4849 9.92608 33.9014 9.49324 34.1505C7.31683 35.4081 5.5222 34.1607 4.01545 32.6519C2.50666 31.1451 1.2592 29.3505 2.51687 27.1741C2.76595 26.7412 3.18245 26.3247 4.01545 25.4938L7.59449 21.9127C9.28295 20.2263 10.1262 19.381 10.1262 18.3337C10.1262 17.2842 9.28091 16.441 7.59449 14.7546L4.01545 11.1735C3.18245 10.3426 2.76595 9.92608 2.51687 9.49324C1.2592 7.31683 2.50666 5.5222 4.01545 4.01545C5.5222 2.50666 7.31683 1.2592 9.49324 2.51687C9.92608 2.76595 10.3426 3.18245 11.1735 4.01545L14.7546 7.59449Z" stroke="url(#paint0_linear_320_3130)" stroke-width="3" stroke-linecap="round" stroke-linejoin="round"/>
<defs>
<linearGradient id="paint0_linear_320_3130" x1="34.6673" y1="2.62253" x2="2" y2="34.0448" gradientUnits="userSpaceOnUse">
<stop stop-color="#0AAD73"/>
<stop offset="1" stop-color="#EE6C41"/>
</linearGradient>
</defs>
</svg>
