<svg width="48" height="61" viewBox="0 0 48 61" fill="none" xmlns="http://www.w3.org/2000/svg">
<path d="M1.65603 30.2431L8.56447 57.707C8.89989 59.0404 10.0989 59.9751 11.4738 59.9751H18.2948H29.4684H36.7549C38.1299 59.9751 39.3289 59.0404 39.6643 57.707L46.5727 30.2431C47.0493 28.3486 45.6169 26.5113 43.6634 26.5113H38.7365L45.182 5.54085C45.6794 3.92254 44.7399 2.21347 43.1071 1.7661L42.2456 1.53008C40.7221 1.11267 39.136 1.94816 38.6185 3.44063L30.619 26.5113H4.5654C2.61189 26.5113 1.17948 28.3486 1.65603 30.2431Z" stroke="url(#paint0_linear_292_3244)" stroke-width="2" style="mix-blend-mode:multiply"/>
<ellipse cx="10.846" cy="39.2081" rx="2.52736" ry="2.32552" fill="url(#paint1_linear_292_3244)"/>
<ellipse cx="22.2188" cy="42.6966" rx="2.52736" ry="2.32552" fill="url(#paint2_linear_292_3244)"/>
<ellipse cx="27.9053" cy="49.6732" rx="3.1592" ry="2.32552" fill="url(#paint3_linear_292_3244)"/>
<ellipse cx="38.6467" cy="42.6966" rx="2.52736" ry="2.32552" fill="url(#paint4_linear_292_3244)"/>
<ellipse cx="36.1194" cy="53.1615" rx="2.52736" ry="2.32552" fill="url(#paint5_linear_292_3244)"/>
<ellipse cx="23.4827" cy="54.3241" rx="2.52736" ry="2.32552" fill="url(#paint6_linear_292_3244)"/>
<ellipse cx="14.6367" cy="50.836" rx="2.52736" ry="2.32552" fill="url(#paint7_linear_292_3244)"/>
<defs>
<linearGradient id="paint0_linear_292_3244" x1="43.9009" y1="2" x2="14.863" y2="61.1749" gradientUnits="userSpaceOnUse">
<stop stop-color="#0AAD73"/>
<stop offset="1" stop-color="#EE6C41"/>
</linearGradient>
<linearGradient id="paint1_linear_292_3244" x1="10.3405" y1="41.0685" x2="12.5766" y2="37.1802" gradientUnits="userSpaceOnUse">
<stop stop-color="#EE6C41"/>
<stop offset="1" stop-color="#0FAC72"/>
</linearGradient>
<linearGradient id="paint2_linear_292_3244" x1="21.7133" y1="44.557" x2="23.9494" y2="40.6687" gradientUnits="userSpaceOnUse">
<stop stop-color="#EE6C41"/>
<stop offset="1" stop-color="#0FAC72"/>
</linearGradient>
<linearGradient id="paint3_linear_292_3244" x1="27.2735" y1="51.5336" x2="29.2381" y2="47.2632" gradientUnits="userSpaceOnUse">
<stop stop-color="#EE6C41"/>
<stop offset="1" stop-color="#0FAC72"/>
</linearGradient>
<linearGradient id="paint4_linear_292_3244" x1="38.1413" y1="44.557" x2="40.3774" y2="40.6687" gradientUnits="userSpaceOnUse">
<stop stop-color="#EE6C41"/>
<stop offset="1" stop-color="#0FAC72"/>
</linearGradient>
<linearGradient id="paint5_linear_292_3244" x1="35.6139" y1="55.0219" x2="37.85" y2="51.1336" gradientUnits="userSpaceOnUse">
<stop stop-color="#EE6C41"/>
<stop offset="1" stop-color="#0FAC72"/>
</linearGradient>
<linearGradient id="paint6_linear_292_3244" x1="22.9772" y1="56.1845" x2="25.2133" y2="52.2961" gradientUnits="userSpaceOnUse">
<stop stop-color="#EE6C41"/>
<stop offset="1" stop-color="#0FAC72"/>
</linearGradient>
<linearGradient id="paint7_linear_292_3244" x1="14.1313" y1="52.6964" x2="16.3674" y2="48.8081" gradientUnits="userSpaceOnUse">
<stop stop-color="#EE6C41"/>
<stop offset="1" stop-color="#0FAC72"/>
</linearGradient>
</defs>
</svg>
