<svg width="41" height="33" viewBox="0 0 41 33" fill="none" xmlns="http://www.w3.org/2000/svg">
<path d="M33.8864 5.71088C33.8864 5.57914 33.8541 5.4528 33.7966 5.35965C33.7391 5.2665 33.6611 5.21417 33.5798 5.21417C33.4985 5.21417 33.4206 5.2665 33.3631 5.35965C33.3056 5.4528 33.2733 5.57914 33.2733 5.71088L33.2733 17.6375C33.2733 17.7693 33.3056 17.8956 33.3631 17.9887C33.4206 18.0819 33.4985 18.1342 33.5798 18.1342C33.6611 18.1342 33.7391 18.0819 33.7966 17.9887C33.8541 17.8956 33.8864 17.7693 33.8864 17.6375L33.8864 5.71088Z" fill="url(#paint0_linear_802_3469)"/>
<path d="M33.5664 5.40313L36.3809 9.96332C36.4383 10.0564 36.5162 10.1086 36.5974 10.1086C36.6786 10.1086 36.7565 10.0564 36.8139 9.96332C36.8713 9.87029 36.9036 9.74411 36.9036 9.61254C36.9036 9.48097 36.8713 9.35479 36.8139 9.26176L33.7829 4.35078C33.7255 4.25775 33.6476 4.20548 33.5664 4.20548C33.4852 4.20548 33.4073 4.25775 33.3499 4.35078L30.3189 9.26176C30.2615 9.35479 30.2292 9.48097 30.2292 9.61254C30.2292 9.74411 30.2615 9.87029 30.3189 9.96332C30.3763 10.0564 30.4542 10.1086 30.5354 10.1086C30.6166 10.1086 30.6945 10.0564 30.7519 9.96332L33.5664 5.40313Z" fill="url(#paint1_linear_802_3469)"/>
<path d="M1.79332 17.6914L5.27131 29.5349C5.64642 30.8123 6.81847 31.6897 8.14976 31.6897H11.5789H18.1474H21.8502C23.1815 31.6897 24.3536 30.8123 24.7287 29.5349L28.2067 17.6914C28.7709 15.7702 27.3305 13.8461 25.3282 13.8461H24.2212L27.582 4.47991C28.0705 3.11845 27.2643 1.63516 25.8561 1.30467C24.6938 1.03191 23.5062 1.64692 23.0583 2.75352L18.5681 13.8461H4.67178C2.66948 13.8461 1.22915 15.7702 1.79332 17.6914Z" stroke="url(#paint2_linear_802_3469)" stroke-width="2" style="mix-blend-mode:multiply"/>
<ellipse cx="15.3715" cy="20.7362" rx="1.48571" ry="1.17101" fill="url(#paint3_linear_802_3469)"/>
<ellipse cx="19.0858" cy="19.5652" rx="1.48571" ry="1.17101" fill="url(#paint4_linear_802_3469)"/>
<ellipse cx="14.257" cy="24.8347" rx="1.85714" ry="1.17101" fill="url(#paint5_linear_802_3469)"/>
<ellipse cx="20.5714" cy="23.6637" rx="1.48571" ry="1.17101" fill="url(#paint6_linear_802_3469)"/>
<ellipse cx="19.0858" cy="28.3475" rx="1.48571" ry="1.17101" fill="url(#paint7_linear_802_3469)"/>
<ellipse cx="9.42859" cy="28.3475" rx="1.48571" ry="1.17101" fill="url(#paint8_linear_802_3469)"/>
<ellipse cx="7.94275" cy="22.4928" rx="1.48571" ry="1.17101" fill="url(#paint9_linear_802_3469)"/>
<defs>
<linearGradient id="paint0_linear_802_3469" x1="33.6134" y1="5.0628" x2="33.4372" y2="18.2841" gradientUnits="userSpaceOnUse">
<stop stop-color="#0FAC72"/>
<stop offset="1" stop-color="#FA693E"/>
</linearGradient>
<linearGradient id="paint1_linear_802_3469" x1="33.5947" y1="4.04579" x2="33.4463" y2="15.1781" gradientUnits="userSpaceOnUse">
<stop stop-color="#0FAC72"/>
<stop offset="1" stop-color="#FA693E"/>
</linearGradient>
<linearGradient id="paint2_linear_802_3469" x1="26.6316" y1="2" x2="13.4242" y2="33.4209" gradientUnits="userSpaceOnUse">
<stop stop-color="#0AAD73"/>
<stop offset="1" stop-color="#EE6C41"/>
</linearGradient>
<linearGradient id="paint3_linear_802_3469" x1="15.0743" y1="21.673" x2="16.1072" y2="19.5763" gradientUnits="userSpaceOnUse">
<stop stop-color="#EE6C41"/>
<stop offset="1" stop-color="#0FAC72"/>
</linearGradient>
<linearGradient id="paint4_linear_802_3469" x1="18.7887" y1="20.502" x2="19.8215" y2="18.4053" gradientUnits="userSpaceOnUse">
<stop stop-color="#EE6C41"/>
<stop offset="1" stop-color="#0FAC72"/>
</linearGradient>
<linearGradient id="paint5_linear_802_3469" x1="13.8856" y1="25.7715" x2="14.7744" y2="23.5163" gradientUnits="userSpaceOnUse">
<stop stop-color="#EE6C41"/>
<stop offset="1" stop-color="#0FAC72"/>
</linearGradient>
<linearGradient id="paint6_linear_802_3469" x1="20.2743" y1="24.6005" x2="21.3071" y2="22.5038" gradientUnits="userSpaceOnUse">
<stop stop-color="#EE6C41"/>
<stop offset="1" stop-color="#0FAC72"/>
</linearGradient>
<linearGradient id="paint7_linear_802_3469" x1="18.7887" y1="29.2843" x2="19.8215" y2="27.1876" gradientUnits="userSpaceOnUse">
<stop stop-color="#EE6C41"/>
<stop offset="1" stop-color="#0FAC72"/>
</linearGradient>
<linearGradient id="paint8_linear_802_3469" x1="9.13144" y1="29.2843" x2="10.1643" y2="27.1876" gradientUnits="userSpaceOnUse">
<stop stop-color="#EE6C41"/>
<stop offset="1" stop-color="#0FAC72"/>
</linearGradient>
<linearGradient id="paint9_linear_802_3469" x1="7.6456" y1="23.4296" x2="8.67846" y2="21.3329" gradientUnits="userSpaceOnUse">
<stop stop-color="#EE6C41"/>
<stop offset="1" stop-color="#0FAC72"/>
</linearGradient>
</defs>
</svg>
