<svg width="46" height="48" viewBox="0 0 46 48" fill="none" xmlns="http://www.w3.org/2000/svg">
<path d="M9.85714 13.2414C8.55744 13.2414 7.28692 12.8531 6.20625 12.1256C5.12559 11.3981 4.28331 10.3641 3.78593 9.15432C3.28856 7.94455 3.15842 6.61335 3.41198 5.32906C3.66554 4.04477 4.29141 2.86508 5.21044 1.93916C6.12947 1.01324 7.30039 0.382678 8.57512 0.127218C9.84985 -0.128243 11.1711 0.00286865 12.3719 0.503973C13.5727 1.00508 14.599 1.85367 15.3211 2.94243C16.0432 4.0312 16.4286 5.31124 16.4286 6.62069C16.4286 8.37661 15.7362 10.0606 14.5038 11.3022C13.2715 12.5438 11.6 13.2414 9.85714 13.2414ZM9.85714 3.31035C9.20729 3.31035 8.57203 3.5045 8.0317 3.86824C7.49137 4.23199 7.07023 4.74899 6.82154 5.35388C6.57285 5.95876 6.50778 6.62436 6.63456 7.26651C6.76134 7.90865 7.07428 8.4985 7.53379 8.96146C7.99331 9.42442 8.57877 9.7397 9.21613 9.86743C9.8535 9.99516 10.5141 9.9296 11.1145 9.67905C11.7149 9.4285 12.2281 9.0042 12.5891 8.45982C12.9502 7.91544 13.1429 7.27542 13.1429 6.62069C13.1429 5.74273 12.7967 4.90074 12.1805 4.27993C11.5643 3.65912 10.7286 3.31035 9.85714 3.31035ZM36.1429 13.2414C34.8432 13.2414 33.5726 12.8531 32.492 12.1256C31.4113 11.3981 30.569 10.3641 30.0716 9.15432C29.5743 7.94455 29.4441 6.61335 29.6977 5.32906C29.9513 4.04477 30.5771 2.86508 31.4962 1.93916C32.4152 1.01324 33.5861 0.382678 34.8608 0.127218C36.1356 -0.128243 37.4569 0.00286865 38.6576 0.503973C39.8584 1.00508 40.8847 1.85367 41.6068 2.94243C42.3289 4.0312 42.7143 5.31124 42.7143 6.62069C42.7143 8.37661 42.0219 10.0606 40.7896 11.3022C39.5572 12.5438 37.8857 13.2414 36.1429 13.2414ZM36.1429 3.31035C35.493 3.31035 34.8577 3.5045 34.3174 3.86824C33.7771 4.23199 33.3559 4.74899 33.1073 5.35388C32.8586 5.95876 32.7935 6.62436 32.9203 7.26651C33.0471 7.90865 33.36 8.4985 33.8195 8.96146C34.279 9.42442 34.8645 9.7397 35.5018 9.86743C36.1392 9.99516 36.7999 9.9296 37.4002 9.67905C38.0006 9.4285 38.5138 9.0042 38.8748 8.45982C39.2359 7.91544 39.4286 7.27542 39.4286 6.62069C39.4286 5.74273 39.0824 4.90074 38.4662 4.27993C37.85 3.65912 37.0143 3.31035 36.1429 3.31035ZM39.4286 48H32.8571C31.9857 48 31.15 47.6512 30.5338 47.0304C29.9176 46.4096 29.5714 45.5676 29.5714 44.6897V33.1035H32.8571V44.6897H39.4286V29.7931H42.7143V19.8621C42.7143 19.4231 42.5412 19.0021 42.2331 18.6917C41.925 18.3813 41.5071 18.2069 41.0714 18.2069H30.5243L23 31.4483L15.4757 18.2069H4.92857C4.49286 18.2069 4.07499 18.3813 3.7669 18.6917C3.4588 19.0021 3.28571 19.4231 3.28571 19.8621V29.7931H6.57143V44.6897H13.1429V33.1035H16.4286V44.6897C16.4286 45.5676 16.0824 46.4096 15.4662 47.0304C14.85 47.6512 14.0143 48 13.1429 48H6.57143C5.7 48 4.86427 47.6512 4.24808 47.0304C3.63189 46.4096 3.28571 45.5676 3.28571 44.6897V33.1035C2.41429 33.1035 1.57855 32.7547 0.962363 32.1339C0.346172 31.5131 0 30.6711 0 29.7931V19.8621C0 18.5451 0.519259 17.2821 1.44355 16.3509C2.36783 15.4197 3.62143 14.8966 4.92857 14.8966H17.3814L23 24.8276L28.6186 14.8966H41.0714C42.3786 14.8966 43.6322 15.4197 44.5565 16.3509C45.4807 17.2821 46 18.5451 46 19.8621V29.7931C46 30.6711 45.6538 31.5131 45.0376 32.1339C44.4214 32.7547 43.5857 33.1035 42.7143 33.1035V44.6897C42.7143 45.5676 42.3681 46.4096 41.7519 47.0304C41.1357 47.6512 40.3 48 39.4286 48Z" fill="url(#paint0_linear_318_3095)"/>
<defs>
<linearGradient id="paint0_linear_318_3095" x1="37.5" y1="-8.53469e-07" x2="5.5" y2="48" gradientUnits="userSpaceOnUse">
<stop stop-color="#0AAD73"/>
<stop offset="0.958848" stop-color="#EE6C41"/>
</linearGradient>
</defs>
</svg>
