<svg width="46" height="46" viewBox="0 0 46 46" fill="none" xmlns="http://www.w3.org/2000/svg">
<path d="M46 1.91667V11.5C46 12.0083 45.7981 12.4958 45.4386 12.8553C45.0792 13.2147 44.5917 13.4167 44.0833 13.4167C43.575 13.4167 43.0875 13.2147 42.728 12.8553C42.3686 12.4958 42.1667 12.0083 42.1667 11.5V3.83333H34.5C33.9917 3.83333 33.5042 3.6314 33.1447 3.27195C32.7853 2.91251 32.5833 2.425 32.5833 1.91667C32.5833 1.40833 32.7853 0.920824 33.1447 0.561379C33.5042 0.201934 33.9917 0 34.5 0H44.0833C44.5917 0 45.0792 0.201934 45.4386 0.561379C45.7981 0.920824 46 1.40833 46 1.91667ZM11.5 42.1667H3.83333V34.5C3.83333 33.9917 3.6314 33.5042 3.27195 33.1447C2.91251 32.7853 2.425 32.5833 1.91667 32.5833C1.40833 32.5833 0.920824 32.7853 0.561379 33.1447C0.201934 33.5042 0 33.9917 0 34.5V44.0833C0 44.5917 0.201934 45.0792 0.561379 45.4386C0.920824 45.7981 1.40833 46 1.91667 46H11.5C12.0083 46 12.4958 45.7981 12.8553 45.4386C13.2147 45.0792 13.4167 44.5917 13.4167 44.0833C13.4167 43.575 13.2147 43.0875 12.8553 42.728C12.4958 42.3686 12.0083 42.1667 11.5 42.1667ZM44.0833 32.5833C43.575 32.5833 43.0875 32.7853 42.728 33.1447C42.3686 33.5042 42.1667 33.9917 42.1667 34.5V42.1667H34.5C33.9917 42.1667 33.5042 42.3686 33.1447 42.728C32.7853 43.0875 32.5833 43.575 32.5833 44.0833C32.5833 44.5917 32.7853 45.0792 33.1447 45.4386C33.5042 45.7981 33.9917 46 34.5 46H44.0833C44.5917 46 45.0792 45.7981 45.4386 45.4386C45.7981 45.0792 46 44.5917 46 44.0833V34.5C46 33.9917 45.7981 33.5042 45.4386 33.1447C45.0792 32.7853 44.5917 32.5833 44.0833 32.5833ZM1.91667 13.4167C2.425 13.4167 2.91251 13.2147 3.27195 12.8553C3.6314 12.4958 3.83333 12.0083 3.83333 11.5V3.83333H11.5C12.0083 3.83333 12.4958 3.6314 12.8553 3.27195C13.2147 2.91251 13.4167 2.425 13.4167 1.91667C13.4167 1.40833 13.2147 0.920824 12.8553 0.561379C12.4958 0.201934 12.0083 0 11.5 0H1.91667C1.40833 0 0.920824 0.201934 0.561379 0.561379C0.201934 0.920824 0 1.40833 0 1.91667V11.5C0 12.0083 0.201934 12.4958 0.561379 12.8553C0.920824 13.2147 1.40833 13.4167 1.91667 13.4167ZM11.5 9.58333H34.5C35.0083 9.58333 35.4958 9.78527 35.8553 10.1447C36.2147 10.5042 36.4167 10.9917 36.4167 11.5V34.5C36.4167 35.0083 36.2147 35.4958 35.8553 35.8553C35.4958 36.2147 35.0083 36.4167 34.5 36.4167H11.5C10.9917 36.4167 10.5042 36.2147 10.1447 35.8553C9.78527 35.4958 9.58333 35.0083 9.58333 34.5V11.5C9.58333 10.9917 9.78527 10.5042 10.1447 10.1447C10.5042 9.78527 10.9917 9.58333 11.5 9.58333ZM13.4167 32.5833H32.5833V13.4167H13.4167V32.5833Z" fill="url(#paint0_linear_320_3105)"/>
<defs>
<linearGradient id="paint0_linear_320_3105" x1="46" y1="0" x2="0.999999" y2="44.5" gradientUnits="userSpaceOnUse">
<stop stop-color="#0AAD73"/>
<stop offset="1" stop-color="#EE6C41"/>
</linearGradient>
</defs>
</svg>
